<?xml version="1.0" ?><svg viewBox="0 0 64 64" fill="#aaa" xmlns="http://www.w3.org/2000/svg"><g id="a"/><g id="b"/><g id="c"/><g id="d"/><g id="e"/><g id="f"/><g id="g"/><g id="h"/><g id="i"/><g id="j"/><g id="k"/><g id="l"/><g id="m"/><g id="n"/><g id="o"/><g id="p"/><g id="q"/><g id="r"/><g id="s"/><g id="t"/><g id="u"/><g id="v"/><g id="w"/><g id="x"/><g id="y"/><g id="a`"/><g id="aa"/><g id="ab"/><g id="ac"/><g id="ad"/><g id="ae"/><g id="af"/><g id="ag"/><g id="ah"/><g id="ai"/><g id="aj"/><g id="ak"/><g id="al"/><g id="am"/><g id="an"/><g id="ao"/><g id="ap"/><g id="aq"/><g id="ar"/><g id="as"/><g id="at"/><g id="au"><path d="M57.04,40.9h-2.54c.49-.16,.79-.66,.67-1.17-.13-.54-.68-.86-1.21-.73-.17,.04-.36,.11-.58,.22v-.39c0-.55-.45-1-1-1s-1,.45-1,1v.39c-.22-.11-.42-.18-.58-.22-.54-.13-1.08,.19-1.21,.73-.13,.51,.18,1.01,.67,1.17h-1.81c-2.24-6.81-2.02-11.25-2.18-13.68,.04-.22,.13-.42,.13-.65v-.59c.95-.4,1.62-1.33,1.62-2.43,0-1.3-.97-2.34-2.22-2.54-.32-.17-7.41-3.89-12.47-9.79h2.53c1.22,0,2.21-.99,2.21-2.21v-1.94c0-1.22-.99-2.22-2.21-2.22h-3.09c-.18-.26-.43-.46-.78-.46-.55,0-1,.45-1,1v5.46c-5.07,6.11-12.48,9.99-12.8,10.16-1.25,.2-2.22,1.24-2.22,2.54,0,1.09,.67,2.03,1.62,2.43v.59c0,.23,.09,.43,.13,.65-.13,2.08,.23,6.36-2.18,13.68h-1.81c.49-.16,.79-.66,.67-1.17-.13-.54-.68-.86-1.21-.73-.17,.04-.36,.11-.58,.22v-.39c0-.55-.45-1-1-1s-1,.45-1,1v.39c-.22-.11-.42-.18-.58-.22-.53-.13-1.05,.19-1.2,.71-.14,.51,.16,1.01,.65,1.19h-2.54c-1.63,0-2.96,1.33-2.96,2.96v12.79c0,1.63,1.33,2.96,2.96,2.96H57.04c1.63,0,2.96-1.33,2.96-2.96v-12.79c0-1.63-1.33-2.96-2.96-2.96Zm0,2c.53,0,.96,.43,.96,.96v3.89c-.3-.11-.62-.19-.96-.19h-4.1c.05-.21,.13-.41,.13-.63,0-1.44-1.18-2.62-2.62-2.62h-.73c-.2-.48-.38-.94-.56-1.41h7.89Zm-44.11,4.03c0-.35,.27-.62,.62-.62H50.44c.35,0,.62,.27,.62,.62s-.28,.63-.62,.63H13.56c-.34,0-.62-.28-.62-.63Zm5.05-23.38c0-.35,.27-.62,.62-.62h26.79c.35,0,.62,.27,.62,.62s-.28,.63-.62,.63H18.61c-.34,0-.62-.28-.62-.63Zm16.96-2.62h-5.87c.77-1.36,1.89-3.55,2.94-6.44,1.04,2.9,2.16,5.08,2.94,6.44Zm9.46,5.64c0,.93-.75,1.68-1.68,1.68s-1.68-.75-1.68-1.68v-.39h3.36v.39Zm-7.04,1.68c-.82,0-1.68-.71-1.68-1.68v-.39h3.36v.39c0,.93-.75,1.68-1.68,1.68Zm-7.04-2.07h3.36v.39c0,.93-.75,1.68-1.68,1.68s-1.68-.75-1.68-1.68v-.39Zm-10.72,.39v-.39h3.36v.39c0,.93-.75,1.68-1.68,1.68s-1.68-.75-1.68-1.68Zm5.36-.39h3.36v.39c0,.97-.86,1.68-1.68,1.68-.93,0-1.68-.75-1.68-1.68v-.39Zm2.84,3.83c.59-.2,1.1-.52,1.51-.96,.67,.73,1.61,1.2,2.68,1.2s2.01-.47,2.68-1.2c.41,.44,.93,.76,1.52,.96,.05,2.45,.22,5.79,.65,9.7-.11-.07-.22-.14-.32-.21-1.43-.91-2.9-1.85-3.56-4.32-.12-.44-.51-.74-.97-.74s-.85,.3-.97,.74c-.66,2.46-2.13,3.41-3.56,4.32-.11,.07-.21,.14-.32,.21,.44-3.91,.61-7.26,.66-9.7Zm.74,11.18c1.08-.69,2.45-1.56,3.45-3.2,1,1.63,2.37,2.51,3.45,3.2,1.48,.95,2.26,1.44,2,3.12h-10.9c-.26-1.67,.51-2.17,2-3.12Zm19.01,3.12h-8.11c.09-.91-.05-1.63-.31-2.23-.68-4.89-.89-9.07-.95-12,.72-.17,1.36-.5,1.84-1.03,.67,.73,1.61,1.2,2.68,1.2,.58,0,1.12-.17,1.61-.41,.15,3.31,.86,8.53,3.24,14.47Zm-5.86-23.38h-4.44c-.5-.79-1.63-2.73-2.79-5.59,2.56,2.41,5.22,4.31,7.23,5.59Zm-5.63-13.86v1.94c0,.12-.09,.21-.21,.21h-2.87v-2.37h2.87c.12,0,.21,.09,.21,.22Zm-6.55,8.27c-1.16,2.86-2.29,4.79-2.79,5.59h-4.44c2-1.28,4.67-3.17,7.23-5.59Zm-9.85,14.5c.49,.24,1.02,.41,1.61,.41,1.06,0,2.01-.47,2.68-1.2,.48,.52,1.13,.85,1.84,1.03-.06,2.92-.27,7.11-.95,12-.26,.6-.4,1.32-.31,2.23h-8.11c2.38-5.94,3.09-11.16,3.24-14.47Zm-12.72,13.06h7.89c-.18,.47-.36,.93-.56,1.41h-.73c-1.45,0-2.62,1.18-2.62,2.62,0,.22,.07,.42,.13,.63H6.96c-.34,0-.66,.09-.96,.19v-3.89c0-.53,.43-.96,.96-.96Zm51.04,13.75c0,.54-.42,.96-.96,.96h-3.24c.49-.16,.79-.66,.67-1.17-.13-.54-.68-.86-1.21-.73-.17,.04-.37,.11-.58,.22v-.39c0-.55-.45-1-1-1s-1,.45-1,1v.39c-.22-.11-.42-.18-.58-.22-.53-.13-1.05,.19-1.2,.71-.14,.51,.16,1.01,.65,1.19h-8.87c.49-.16,.79-.66,.67-1.17-.13-.54-.68-.86-1.21-.73-.17,.04-.37,.11-.58,.22v-.39c0-.55-.45-1-1-1s-1,.45-1,1v.39c-.22-.11-.42-.18-.58-.22-.53-.13-1.08,.19-1.21,.73-.13,.51,.18,1.01,.67,1.17h-8.88c.49-.16,.79-.66,.67-1.17-.13-.54-.68-.86-1.21-.73-.17,.04-.36,.11-.58,.22v-.39c0-.55-.45-1-1-1s-1,.45-1,1v.39c-.22-.11-.42-.18-.58-.22-.53-.13-1.08,.19-1.21,.73-.13,.51,.18,1.01,.67,1.17H14.45c.49-.16,.79-.66,.67-1.17-.13-.54-.68-.86-1.21-.73-.16,.04-.36,.11-.58,.22v-.39c0-.55-.45-1-1-1s-1,.45-1,1v.39c-.22-.11-.42-.18-.58-.22-.53-.13-1.08,.19-1.21,.73-.13,.51,.18,1.01,.67,1.17h-3.25c-.54,0-.96-.42-.96-.96v-6.13c0-.54,.42-.96,.96-.96H57.04c.54,0,.96,.42,.96,.96v6.13Z"/><circle cx="21.16" cy="41.68" r="1"/><circle cx="21.81" cy="38.12" r="1"/><circle cx="42.84" cy="41.68" r="1"/><circle cx="42.19" cy="38.12" r="1"/></g><g id="av"/><g id="aw"/><g id="ax"/></svg>